<svg id="Layer_1" height="64" viewBox="0 0 512 512" width="64" xmlns="http://www.w3.org/2000/svg" data-name="Layer 1"><g fill-rule="evenodd"><path d="m256 383.084-11.163-59.691 116.4-13.8 6.267 30.704 21.797 144.279-63.998-33.186-51.337 50.61-13.311-88.106z" fill="#f26674"/><path d="m371.336 365.659-6.968-60.324-59.476 10.939 20.412 135.116 63.997 33.186-13.311-88.106z" fill="#db5669"/><path d="m144.496 340.297 6.741-43.304 116.4 51-11.637 35.091-4.655 30.81-13.311 88.106-51.337-50.61-63.998 33.186z" fill="#f26674"/><path d="m144.496 340.297 6.741-43.304 55.383 24.266-19.923 130.131-63.998 33.186z" fill="#db5669"/><path d="m304.095 46.737c8.254 2.648 16.208 5.963 23.805 9.875l19.43-5.206 19.19-5.143c15.17 11.176 28.585 24.592 39.761 39.761l-5.143 19.19-5.204 19.421c3.914 7.6 7.229 15.56 9.879 23.818l17.396 10.043 17.229 9.948c1.386 9.166 2.107 18.549 2.107 28.101s-.722 18.936-2.107 28.101l-17.229 9.947-17.401 10.047c-2.648 8.254-5.964 16.208-9.875 23.805l5.206 19.43 5.143 19.19c-11.176 15.171-24.592 28.585-39.761 39.761l-19.189-5.143-19.421-5.204c-7.6 3.914-15.56 7.229-23.818 9.879l-10.043 17.396-9.948 17.229c-9.166 1.386-18.549 2.107-28.101 2.107s-18.936-.722-28.101-2.107l-9.947-17.229-10.047-17.401c-8.254-2.648-16.208-5.964-23.805-9.875l-19.43 5.206-19.19 5.143c-15.171-11.176-28.584-24.592-39.761-39.761l5.143-19.189 5.204-19.421c-3.914-7.6-7.229-15.56-9.879-23.818l-17.396-10.043-17.229-9.948c-1.386-9.166-2.107-18.549-2.107-28.101s.722-18.936 2.107-28.101l17.229-9.947 17.398-10.046c2.649-8.257 5.961-16.217 9.876-23.817l-5.204-19.421-5.143-19.19c11.176-15.171 24.592-28.584 39.761-39.761l19.189 5.143 19.423 5.204c7.599-3.913 15.558-7.225 23.813-9.873l10.046-17.401 9.948-17.229c9.166-1.386 18.549-2.107 28.101-2.107s18.936.722 28.101 2.107l9.947 17.229zm-48.095 42.258c-59.398 0-107.55 48.152-107.55 107.55s48.152 107.55 107.55 107.55 107.55-48.152 107.55-107.55-48.152-107.55-107.55-107.55z" fill="#fc6"/><path d="m304.092 346.359-10.043 17.396-9.948 17.229c-9.166 1.386-18.549 2.107-28.101 2.107s-18.936-.722-28.101-2.107l-9.947-17.229-10.047-17.401c-8.254-2.648-16.208-5.964-23.805-9.875l-19.43 5.206-19.19 5.143c-15.171-11.176-28.584-24.592-39.761-39.761l5.143-19.189 5.204-19.421c-3.914-7.6-7.229-15.56-9.879-23.818l-17.396-10.043-17.229-9.948c-1.386-9.166-2.107-18.549-2.107-28.101s.722-18.936 2.107-28.101l17.229-9.947 17.398-10.046c2.649-8.257 5.961-16.217 9.876-23.817l-5.204-19.421-5.143-19.19c11.176-15.171 24.592-28.584 39.761-39.761l19.189 5.143 19.423 5.204c-59.647 44.128-81.582 123.204-53.192 191.753 28.39 68.55 99.811 108.961 173.193 97.995z" fill="#ffba55"/><path d="m256 129.329 20.496 46.103 50.179 5.246-37.512 33.739 10.517 49.345-43.68-25.25-43.68 25.25 10.517-49.345-37.512-33.739 50.179-5.246z" fill="#fc6"/></g></svg>